<svg xmlns="http://www.w3.org/2000/svg">
	<symbol id="tel" viewBox="0 0 18 18">
		<path fill-rule="evenodd" clip-rule="evenodd" d="M4.53706 1.25443C3.61753 1.37251 2.77245 1.82143 2.15981 2.51731C1.54665 3.21377 1.20838 4.10985 1.20833 5.03776C1.20833 8.16702 2.45142 11.1681 4.66414 13.3808C6.87685 15.5935 9.87792 16.8366 13.0072 16.8366M4.53706 1.25443C4.57578 1.25001 4.61492 1.25816 4.64868 1.27769C4.68281 1.29742 4.70959 1.32771 4.72501 1.364L6.54868 5.61925C6.56065 5.64717 6.56553 5.67763 6.56288 5.70789C6.56023 5.73816 6.55014 5.7673 6.5335 5.79272L5.02552 8.09685L5.02467 8.09815C4.90475 8.27974 4.83386 8.48927 4.81889 8.70637C4.80388 8.924 4.84559 9.14179 4.93992 9.33848L4.94174 9.34224C5.74802 10.9906 7.08418 12.3207 8.7362 13.1195L8.74003 13.1213C8.93791 13.2151 9.1568 13.2557 9.37515 13.2392C9.59298 13.2227 9.80278 13.1499 9.984 13.028L9.98532 13.0271L12.2546 11.5139C12.2801 11.4969 12.3094 11.4865 12.3399 11.4837C12.3705 11.4809 12.4012 11.4858 12.4294 11.4978L16.6793 13.3192L16.6809 13.3199C16.7172 13.3353 16.7475 13.3621 16.7672 13.3962C16.7868 13.43 16.7949 13.4691 16.7905 13.5079C16.6724 14.4274 16.2235 15.2725 15.5276 15.8851C14.8312 16.4983 13.9351 16.8365 13.0072 16.8366M4.40565 0.179087C4.67795 0.146134 4.95359 0.202569 5.19104 0.33989C5.4282 0.477049 5.61443 0.687484 5.72173 0.939549L5.72211 0.940436L7.54442 5.1925C7.62676 5.38462 7.66031 5.59413 7.64208 5.80236C7.62386 6.01058 7.55442 6.21107 7.43996 6.38597L5.92879 8.69497C5.91181 8.7206 5.90177 8.75021 5.89966 8.78088C5.89757 8.81109 5.90324 8.84132 5.91611 8.86871C6.61552 10.2972 7.77359 11.45 9.20526 12.1429C9.23279 12.1557 9.26315 12.1612 9.29342 12.1589C9.32419 12.1566 9.35382 12.1463 9.37939 12.129L9.38184 12.1274L11.6536 10.6126C11.829 10.4956 12.0309 10.4242 12.2408 10.4049C12.4508 10.3856 12.6623 10.419 12.8561 10.5021L17.1045 12.3228L17.1055 12.3233C17.3575 12.4306 17.5679 12.6168 17.705 12.8539C17.8424 13.0913 17.8988 13.367 17.8658 13.6393L17.8654 13.6429C17.7144 14.8247 17.1377 15.9109 16.2435 16.6982C15.3492 17.4855 14.1987 17.9199 13.0072 17.9199C9.59065 17.9199 6.31398 16.5627 3.89811 14.1468C1.48223 11.7309 0.125 8.4543 0.125 5.03774C0.125063 3.8463 0.559402 2.69571 1.34669 1.80145C2.13398 0.907194 3.22023 0.330566 4.40206 0.179534L4.40565 0.179087Z" />
	</symbol>
	<symbol id="map" fill="currentColor" version="1.1" viewBox="0 0 260 166" enable-background="new 0 0 260 166" xml:space="preserve">
		<polygon points="243.199,112.566 235.896,102.51 227.168,100.247 223.726,106.665 218.71,106.395 217.235,85.568 223.332,72.563   228.373,69.98 223.431,56.336 226.922,47.976 230.807,50.312 238.625,65.851 242.928,68.949 258,72.66 245.928,52.033   238.675,52.77 233.659,48.344 233.683,36.961 227.856,22.331 220.406,17.831 217.456,12.299 221.586,6.57 214.407,2.096   213.079,9.152 203.589,19.134 200.368,28.871 201.622,33.937 192.918,42.984 190.509,49.598 185.001,50.065 178.043,56.213   179.149,61.277 172.757,70.006 168.134,64.99 162.848,69.367 150.112,72.047 149.907,72.438 148.416,62.924 143.646,63.269   128.598,69.857 125.328,75.882 119.059,76.397 115.789,80.21 109.789,80.799 105.954,76.102 96.684,85.691 79.646,76.725   56.386,71.48 52.477,73.423 57.05,63.785 57.02,63.678 59.853,70.62 67.205,70.448 65.262,54.836 59.632,54.393 45.814,64.792   44.634,68.629 33.865,71.063 29.046,69.39 20.465,75.242 21.817,80.947 13.9,98.182 17.539,110.624 7.95,113.598 2,114.238   2.86,125.154 10.409,138.333 12.179,145.783 18.104,135.087 21.227,134.227 26.489,135.456 26.71,124.883 32.217,122.007   46.052,124.576 59.036,138.117 66.737,131.522 86.678,135.309 91.005,143.52 96.611,142.611 104.11,156.01 114.068,157.928   121.985,163.904 132.975,158.445 147.063,160.633 149.866,151.88 158.054,153.158 162.529,156.355 172.535,154.143 180.625,154.314   187.435,147.257 196.434,145.783 198.081,141.529 198.647,128.915 206.638,125.424 216.62,131.62 224.832,129.137 228.299,131.522   233.167,123.777 236.585,128.768 239.855,141.676 244.034,140.053 246.272,134.055 " />
	</symbol>
</svg>
